ffmpeg started on 2025-05-12 at 15:02:15
Report written to "D:\Convert\FFMetrics\reports\psnr_report-6.txt"
Log level: 32
Command line:
ffmpeg -hide_banner -nostdin -i "G:\\\xc0\xed\xe8\xec\xe5\\\xce\xed\xe3\xee\xe8\xed\xe3\xe8\\!_35_\xcb\xe5\xf2\xee_2024\\DreamCast\\\xc6\xe8\xe7\xed\xfc \xf1 \xec\xee\xe5\xe9 \xf1\xe2\xee\xe4\xed\xee\xe9 \xf1\xe5\xf1\xf2\xf0\xee\xe9\\[DC] Gimai Seikatsu - 01_Telegram_HEVC.mkv" -i "G:\\\xc0\xed\xe8\xec\xe5\\\xce\xed\xe3\xee\xe8\xed\xe3\xe8\\!_35_\xcb\xe5\xf2\xee_2024\\DreamCast\\\xc6\xe8\xe7\xed\xfc \xf1 \xec\xee\xe5\xe9 \xf1\xe2\xee\xe4\xed\xee\xe9 \xf1\xe5\xf1\xf2\xf0\xee\xe9\\[DC] Gimai Seikatsu - 01_Telegram.mp4" -lavfi "[0:v]settb=AVTB,setpts=PTS-STARTPTS,format=pix_fmts=yuv420p10,fps=24000/1001,scale=1920:1080:flags=bicubic[main];[1:v]settb=AVTB,setpts=PTS-STARTPTS,format=pix_fmts=yuv420p,fps=24000/1001,scale=1920:1080:flags=bicubic[ref];[main][ref]psnr=eof_action=endall:stats_file='D\\:/Convert/FFMetrics/logs/psnr_logfile-6.txt'" -f null -
Input #0, matroska,webm, from 'G:\Аниме\Онгоинги\!_35_Лето_2024\DreamCast\Жизнь с моей сводной сестрой\[DC] Gimai Seikatsu - 01_Telegram_HEVC.mkv':
  Metadata:
    COMPATIBLE_BRANDS: isomiso2avc1mp41
    MAJOR_BRAND     : isom
    MINOR_VERSION   : 512
    ENCODER         : Lavf61.7.100
  Duration: 00:24:00.39, start: -0.021000, bitrate: 858 kb/s
  Stream #0:0: Video: hevc (Main 10), yuv420p10le(tv, bt709, progressive), 1920x1080 [SAR 1:1 DAR 16:9], 23.98 fps, 23.98 tbr, 1k tbn (default)
      Metadata:
        HANDLER_NAME    : VideoHandler
        VENDOR_ID       : [0][0][0][0]
        ENCODER         : Lavc61.19.100 libx265
        BPS             : 663901
        DURATION        : 00:23:56.601708333
        NUMBER_OF_FRAMES: 34444
        NUMBER_OF_BYTES : 119220186
        _STATISTICS_WRITING_APP: mkvpropedit v66.0.0 ('Josie') 64-bit
        _STATISTICS_WRITING_DATE_UTC: 2025-05-07 12:20:39
        _STATISTICS_TAGS: BPS DURATION NUMBER_OF_FRAMES NUMBER_OF_BYTES
  Stream #0:1: Audio: aac (LC), 48000 Hz, stereo, fltp (default)
      Metadata:
        HANDLER_NAME    : SoundHandler
        VENDOR_ID       : [0][0][0][0]
        ENCODER         : Lavc61.19.100 aac
        BPS             : 192638
        DURATION        : 00:24:00.384000000
        NUMBER_OF_FRAMES: 67519
        NUMBER_OF_BYTES : 34684235
        _STATISTICS_WRITING_APP: mkvpropedit v66.0.0 ('Josie') 64-bit
        _STATISTICS_WRITING_DATE_UTC: 2025-05-07 12:20:39
        _STATISTICS_TAGS: BPS DURATION NUMBER_OF_FRAMES NUMBER_OF_BYTES
Input #1, mov,mp4,m4a,3gp,3g2,mj2, from 'G:\Аниме\Онгоинги\!_35_Лето_2024\DreamCast\Жизнь с моей сводной сестрой\[DC] Gimai Seikatsu - 01_Telegram.mp4':
  Metadata:
    major_brand     : isom
    minor_version   : 512
    compatible_brands: isomiso2avc1mp41
    encoder         : Lavf61.1.100
  Duration: 00:24:00.34, start: 0.000000, bitrate: 3758 kb/s
  Stream #1:0[0x1](und): Video: h264 (High) (avc1 / 0x31637661), yuv420p(tv, bt709, progressive), 1920x1080 [SAR 1:1 DAR 16:9], 3620 kb/s, 23.98 fps, 23.98 tbr, 24k tbn (default)
      Metadata:
        handler_name    : VideoHandler
        vendor_id       : [0][0][0][0]
        encoder         : Lavc61.3.100 h264_qsv
  Stream #1:1[0x2](und): Audio: aac (HE-AACv2) (mp4a / 0x6134706D), 48000 Hz, stereo, fltp, 144 kb/s (default)
      Metadata:
        handler_name    : SoundHandler
        vendor_id       : [0][0][0][0]
Stream mapping:
  Stream #0:0 (hevc) -> settb:default
  Stream #1:0 (h264) -> settb:default
  psnr:default -> Stream #0:0 (wrapped_avframe)
  Stream #0:1 -> #0:1 (aac (native) -> pcm_s16le (native))
Output #0, null, to 'pipe:':
  Metadata:
    COMPATIBLE_BRANDS: isomiso2avc1mp41
    MAJOR_BRAND     : isom
    MINOR_VERSION   : 512
    encoder         : Lavf61.7.100
  Stream #0:0: Video: wrapped_avframe, yuv420p10le(tv, bt709, progressive), 1920x1080 [SAR 1:1 DAR 16:9], q=2-31, 200 kb/s, 23.98 fps, 23.98 tbn
      Metadata:
        encoder         : Lavc61.19.100 wrapped_avframe
  Stream #0:1: Audio: pcm_s16le, 48000 Hz, stereo, s16, 1536 kb/s (default)
      Metadata:
        HANDLER_NAME    : SoundHandler
        VENDOR_ID       : [0][0][0][0]
        _STATISTICS_TAGS: BPS DURATION NUMBER_OF_FRAMES NUMBER_OF_BYTES
        BPS             : 192638
        DURATION        : 00:24:00.384000000
        NUMBER_OF_FRAMES: 67519
        NUMBER_OF_BYTES : 34684235
        _STATISTICS_WRITING_APP: mkvpropedit v66.0.0 ('Josie') 64-bit
        _STATISTICS_WRITING_DATE_UTC: 2025-05-07 12:20:39
        encoder         : Lavc61.19.100 pcm_s16le
frame=  167 fps=0.0 q=-0.0 size=N/A time=00:00:06.96 bitrate=N/A speed=13.2x    frame=  366 fps=353 q=-0.0 size=N/A time=00:00:15.26 bitrate=N/A speed=14.7x    frame=  549 fps=352 q=-0.0 size=N/A time=00:00:22.89 bitrate=N/A speed=14.7x    frame=  744 fps=360 q=-0.0 size=N/A time=00:00:31.03 bitrate=N/A speed=  15x    frame=  971 fps=375 q=-0.0 size=N/A time=00:00:40.49 bitrate=N/A speed=15.6x    frame= 1208 fps=391 q=-0.0 size=N/A time=00:00:50.38 bitrate=N/A speed=16.3x    frame= 1450 fps=401 q=-0.0 size=N/A time=00:01:00.47 bitrate=N/A speed=16.7x    frame= 1617 fps=392 q=-0.0 size=N/A time=00:01:07.44 bitrate=N/A speed=16.4x    frame= 1800 fps=388 q=-0.0 size=N/A time=00:01:15.07 bitrate=N/A speed=16.2x    frame= 1958 fps=379 q=-0.0 size=N/A time=00:01:21.66 bitrate=N/A speed=15.8x    frame= 2116 fps=373 q=-0.0 size=N/A time=00:01:28.25 bitrate=N/A speed=15.6x    frame= 2296 fps=370 q=-0.0 size=N/A time=00:01:35.76 bitrate=N/A speed=15.5x    frame= 2491 fps=372 q=-0.0 size=N/A time=00:01:43.89 bitrate=N/A speed=15.5x    frame= 2733 fps=378 q=-0.0 size=N/A time=00:01:53.98 bitrate=N/A speed=15.8x    frame= 2978 fps=385 q=-0.0 size=N/A time=00:02:04.20 bitrate=N/A speed=16.1x    frame= 3234 fps=392 q=-0.0 size=N/A time=00:02:14.88 bitrate=N/A speed=16.3x    frame= 3494 fps=398 q=-0.0 size=N/A time=00:02:25.72 bitrate=N/A speed=16.6x    frame= 3712 fps=399 q=-0.0 size=N/A time=00:02:34.82 bitrate=N/A speed=16.7x    frame= 3920 fps=400 q=-0.0 size=N/A time=00:02:43.49 bitrate=N/A speed=16.7x    frame= 4136 fps=401 q=-0.0 size=N/A time=00:02:52.50 bitrate=N/A speed=16.7x    frame= 4338 fps=401 q=-0.0 size=N/A time=00:03:00.93 bitrate=N/A speed=16.7x    frame= 4601 fps=406 q=-0.0 size=N/A time=00:03:11.90 bitrate=N/A speed=16.9x    frame= 4854 fps=409 q=-0.0 size=N/A time=00:03:22.45 bitrate=N/A speed=17.1x    frame= 5107 fps=412 q=-0.0 size=N/A time=00:03:33.00 bitrate=N/A speed=17.2x    frame= 5354 fps=415 q=-0.0 size=N/A time=00:03:43.30 bitrate=N/A speed=17.3x    frame= 5611 fps=418 q=-0.0 size=N/A time=00:03:54.02 bitrate=N/A speed=17.4x    frame= 5858 fps=421 q=-0.0 size=N/A time=00:04:04.36 bitrate=N/A speed=17.5x    frame= 6113 fps=423 q=-0.0 size=N/A time=00:04:14.96 bitrate=N/A speed=17.6x    frame= 6347 fps=424 q=-0.0 size=N/A time=00:04:24.72 bitrate=N/A speed=17.7x    frame= 6582 fps=425 q=-0.0 size=N/A time=00:04:34.52 bitrate=N/A speed=17.7x    frame= 6815 fps=426 q=-0.0 size=N/A time=00:04:44.24 bitrate=N/A speed=17.8x    frame= 7066 fps=428 q=-0.0 size=N/A time=00:04:54.71 bitrate=N/A speed=17.9x    frame= 7293 fps=428 q=-0.0 size=N/A time=00:05:04.17 bitrate=N/A speed=17.9x    frame= 7525 fps=429 q=-0.0 size=N/A time=00:05:13.85 bitrate=N/A speed=17.9x    frame= 7767 fps=430 q=-0.0 size=N/A time=00:05:23.94 bitrate=N/A speed=17.9x    frame= 8010 fps=431 q=-0.0 size=N/A time=00:05:34.08 bitrate=N/A speed=  18x    frame= 8254 fps=433 q=-0.0 size=N/A time=00:05:44.26 bitrate=N/A speed=  18x    frame= 8487 fps=433 q=-0.0 size=N/A time=00:05:53.97 bitrate=N/A speed=18.1x    frame= 8740 fps=435 q=-0.0 size=N/A time=00:06:04.53 bitrate=N/A speed=18.1x    frame= 8968 fps=435 q=-0.0 size=N/A time=00:06:14.04 bitrate=N/A speed=18.1x    frame= 9191 fps=435 q=-0.0 size=N/A time=00:06:23.34 bitrate=N/A speed=18.1x    frame= 9450 fps=436 q=-0.0 size=N/A time=00:06:34.14 bitrate=N/A speed=18.2x    frame= 9698 fps=437 q=-0.0 size=N/A time=00:06:44.48 bitrate=N/A speed=18.2x    frame= 9942 fps=438 q=-0.0 size=N/A time=00:06:54.66 bitrate=N/A speed=18.3x    frame=10181 fps=439 q=-0.0 size=N/A time=00:07:04.63 bitrate=N/A speed=18.3x    frame=10428 fps=440 q=-0.0 size=N/A time=00:07:14.93 bitrate=N/A speed=18.3x    frame=10672 fps=440 q=-0.0 size=N/A time=00:07:25.11 bitrate=N/A speed=18.4x    frame=10922 fps=441 q=-0.0 size=N/A time=00:07:35.53 bitrate=N/A speed=18.4x    frame=11174 fps=442 q=-0.0 size=N/A time=00:07:46.04 bitrate=N/A speed=18.4x    frame=11415 fps=442 q=-0.0 size=N/A time=00:07:56.10 bitrate=N/A speed=18.5x    frame=11655 fps=443 q=-0.0 size=N/A time=00:08:06.11 bitrate=N/A speed=18.5x    frame=11912 fps=444 q=-0.0 size=N/A time=00:08:16.82 bitrate=N/A speed=18.5x    frame=12158 fps=445 q=-0.0 size=N/A time=00:08:27.08 bitrate=N/A speed=18.5x    frame=12417 fps=446 q=-0.0 size=N/A time=00:08:37.89 bitrate=N/A speed=18.6x    frame=12668 fps=446 q=-0.0 size=N/A time=00:08:48.36 bitrate=N/A speed=18.6x    frame=12910 fps=447 q=-0.0 size=N/A time=00:08:58.45 bitrate=N/A speed=18.6x    frame=13143 fps=447 q=-0.0 size=N/A time=00:09:08.17 bitrate=N/A speed=18.6x    frame=13383 fps=447 q=-0.0 size=N/A time=00:09:18.18 bitrate=N/A speed=18.7x    frame=13625 fps=448 q=-0.0 size=N/A time=00:09:28.27 bitrate=N/A speed=18.7x    frame=13867 fps=448 q=-0.0 size=N/A time=00:09:38.36 bitrate=N/A speed=18.7x    frame=14115 fps=448 q=-0.0 size=N/A time=00:09:48.71 bitrate=N/A speed=18.7x    frame=14347 fps=449 q=-0.0 size=N/A time=00:09:58.38 bitrate=N/A speed=18.7x    frame=14600 fps=449 q=-0.0 size=N/A time=00:10:08.94 bitrate=N/A speed=18.7x    frame=14849 fps=450 q=-0.0 size=N/A time=00:10:19.32 bitrate=N/A speed=18.8x    frame=15104 fps=450 q=-0.0 size=N/A time=00:10:29.96 bitrate=N/A speed=18.8x    frame=15363 fps=451 q=-0.0 size=N/A time=00:10:40.76 bitrate=N/A speed=18.8x    frame=15590 fps=451 q=-0.0 size=N/A time=00:10:50.23 bitrate=N/A speed=18.8x    frame=15821 fps=451 q=-0.0 size=N/A time=00:10:59.86 bitrate=N/A speed=18.8x    frame=16038 fps=451 q=-0.0 size=N/A time=00:11:08.91 bitrate=N/A speed=18.8x    frame=16264 fps=450 q=-0.0 size=N/A time=00:11:18.34 bitrate=N/A speed=18.8x    frame=16520 fps=451 q=-0.0 size=N/A time=00:11:29.02 bitrate=N/A speed=18.8x    frame=16768 fps=451 q=-0.0 size=N/A time=00:11:39.36 bitrate=N/A speed=18.8x    frame=17015 fps=452 q=-0.0 size=N/A time=00:11:49.66 bitrate=N/A speed=18.8x    frame=17271 fps=452 q=-0.0 size=N/A time=00:12:00.34 bitrate=N/A speed=18.9x    frame=17515 fps=453 q=-0.0 size=N/A time=00:12:10.52 bitrate=N/A speed=18.9x    frame=17754 fps=453 q=-0.0 size=N/A time=00:12:20.48 bitrate=N/A speed=18.9x    frame=18004 fps=453 q=-0.0 size=N/A time=00:12:30.91 bitrate=N/A speed=18.9x    frame=18260 fps=454 q=-0.0 size=N/A time=00:12:41.59 bitrate=N/A speed=18.9x    frame=18494 fps=454 q=-0.0 size=N/A time=00:12:51.35 bitrate=N/A speed=18.9x    frame=18737 fps=454 q=-0.0 size=N/A time=00:13:01.48 bitrate=N/A speed=18.9x    frame=18980 fps=454 q=-0.0 size=N/A time=00:13:11.62 bitrate=N/A speed=18.9x    frame=19250 fps=455 q=-0.0 size=N/A time=00:13:22.88 bitrate=N/A speed=  19x    frame=19492 fps=455 q=-0.0 size=N/A time=00:13:32.97 bitrate=N/A speed=  19x    frame=19744 fps=455 q=-0.0 size=N/A time=00:13:43.48 bitrate=N/A speed=  19x    frame=19987 fps=456 q=-0.0 size=N/A time=00:13:53.62 bitrate=N/A speed=  19x    frame=20238 fps=456 q=-0.0 size=N/A time=00:14:04.09 bitrate=N/A speed=  19x    frame=20474 fps=456 q=-0.0 size=N/A time=00:14:13.93 bitrate=N/A speed=  19x    frame=20731 fps=456 q=-0.0 size=N/A time=00:14:24.65 bitrate=N/A speed=  19x    frame=20983 fps=457 q=-0.0 size=N/A time=00:14:35.16 bitrate=N/A speed=19.1x    frame=21230 fps=457 q=-0.0 size=N/A time=00:14:45.46 bitrate=N/A speed=19.1x    frame=21493 fps=458 q=-0.0 size=N/A time=00:14:56.43 bitrate=N/A speed=19.1x    frame=21746 fps=458 q=-0.0 size=N/A time=00:15:06.98 bitrate=N/A speed=19.1x    frame=22003 fps=458 q=-0.0 size=N/A time=00:15:17.70 bitrate=N/A speed=19.1x    frame=22207 fps=458 q=-0.0 size=N/A time=00:15:26.21 bitrate=N/A speed=19.1x    frame=22468 fps=458 q=-0.0 size=N/A time=00:15:37.10 bitrate=N/A speed=19.1x    frame=22711 fps=459 q=-0.0 size=N/A time=00:15:47.23 bitrate=N/A speed=19.1x    frame=22969 fps=459 q=-0.0 size=N/A time=00:15:57.99 bitrate=N/A speed=19.1x    frame=23215 fps=459 q=-0.0 size=N/A time=00:16:08.25 bitrate=N/A speed=19.1x    frame=23471 fps=459 q=-0.0 size=N/A time=00:16:18.93 bitrate=N/A speed=19.2x    frame=23732 fps=460 q=-0.0 size=N/A time=00:16:29.82 bitrate=N/A speed=19.2x    frame=23980 fps=460 q=-0.0 size=N/A time=00:16:40.16 bitrate=N/A speed=19.2x    frame=24222 fps=460 q=-0.0 size=N/A time=00:16:50.25 bitrate=N/A speed=19.2x    frame=24354 fps=458 q=-0.0 size=N/A time=00:16:55.76 bitrate=N/A speed=19.1x    frame=24526 fps=457 q=-0.0 size=N/A time=00:17:02.93 bitrate=N/A speed=19.1x    frame=24727 fps=456 q=-0.0 size=N/A time=00:17:11.32 bitrate=N/A speed=  19x    frame=24930 fps=456 q=-0.0 size=N/A time=00:17:19.78 bitrate=N/A speed=  19x    frame=25172 fps=456 q=-0.0 size=N/A time=00:17:29.88 bitrate=N/A speed=  19x    frame=25435 fps=456 q=-0.0 size=N/A time=00:17:40.85 bitrate=N/A speed=  19x    frame=25688 fps=457 q=-0.0 size=N/A time=00:17:51.40 bitrate=N/A speed=19.1x    frame=25954 fps=457 q=-0.0 size=N/A time=00:18:02.49 bitrate=N/A speed=19.1x    frame=26203 fps=458 q=-0.0 size=N/A time=00:18:12.88 bitrate=N/A speed=19.1x    frame=26460 fps=458 q=-0.0 size=N/A time=00:18:23.60 bitrate=N/A speed=19.1x    frame=26717 fps=458 q=-0.0 size=N/A time=00:18:34.32 bitrate=N/A speed=19.1x    frame=26971 fps=459 q=-0.0 size=N/A time=00:18:44.91 bitrate=N/A speed=19.1x    frame=27209 fps=459 q=-0.0 size=N/A time=00:18:54.84 bitrate=N/A speed=19.1x    frame=27451 fps=459 q=-0.0 size=N/A time=00:19:04.93 bitrate=N/A speed=19.1x    frame=27689 fps=459 q=-0.0 size=N/A time=00:19:14.86 bitrate=N/A speed=19.1x    frame=27951 fps=459 q=-0.0 size=N/A time=00:19:25.78 bitrate=N/A speed=19.2x    frame=28216 fps=460 q=-0.0 size=N/A time=00:19:36.84 bitrate=N/A speed=19.2x    frame=28455 fps=460 q=-0.0 size=N/A time=00:19:46.81 bitrate=N/A speed=19.2x    frame=28704 fps=460 q=-0.0 size=N/A time=00:19:57.19 bitrate=N/A speed=19.2x    frame=28943 fps=460 q=-0.0 size=N/A time=00:20:07.16 bitrate=N/A speed=19.2x    frame=29203 fps=460 q=-0.0 size=N/A time=00:20:18.00 bitrate=N/A speed=19.2x    frame=29438 fps=460 q=-0.0 size=N/A time=00:20:27.85 bitrate=N/A speed=19.2x    frame=29696 fps=461 q=-0.0 size=N/A time=00:20:38.57 bitrate=N/A speed=19.2x    frame=29959 fps=461 q=-0.0 size=N/A time=00:20:49.53 bitrate=N/A speed=19.2x    frame=30215 fps=461 q=-0.0 size=N/A time=00:21:00.21 bitrate=N/A speed=19.2x    frame=30487 fps=462 q=-0.0 size=N/A time=00:21:11.56 bitrate=N/A speed=19.3x    frame=30739 fps=462 q=-0.0 size=N/A time=00:21:22.07 bitrate=N/A speed=19.3x    frame=30980 fps=462 q=-0.0 size=N/A time=00:21:32.12 bitrate=N/A speed=19.3x    frame=31174 fps=461 q=-0.0 size=N/A time=00:21:40.21 bitrate=N/A speed=19.2x    frame=31402 fps=461 q=-0.0 size=N/A time=00:21:49.72 bitrate=N/A speed=19.2x    frame=31607 fps=461 q=-0.0 size=N/A time=00:21:58.27 bitrate=N/A speed=19.2x    frame=31839 fps=461 q=-0.0 size=N/A time=00:22:07.95 bitrate=N/A speed=19.2x    frame=32065 fps=460 q=-0.0 size=N/A time=00:22:17.37 bitrate=N/A speed=19.2x    frame=32195 fps=459 q=-0.0 size=N/A time=00:22:22.79 bitrate=N/A speed=19.1x    frame=32362 fps=458 q=-0.0 size=N/A time=00:22:29.76 bitrate=N/A speed=19.1x    frame=32589 fps=458 q=-0.0 size=N/A time=00:22:39.23 bitrate=N/A speed=19.1x    frame=32848 fps=458 q=-0.0 size=N/A time=00:22:50.03 bitrate=N/A speed=19.1x    frame=33103 fps=458 q=-0.0 size=N/A time=00:23:00.67 bitrate=N/A speed=19.1x    frame=33388 fps=459 q=-0.0 size=N/A time=00:23:12.55 bitrate=N/A speed=19.1x    frame=33663 fps=460 q=-0.0 size=N/A time=00:23:24.02 bitrate=N/A speed=19.2x    frame=33942 fps=460 q=-0.0 size=N/A time=00:23:35.66 bitrate=N/A speed=19.2x    frame=34188 fps=460 q=-0.0 size=N/A time=00:23:45.92 bitrate=N/A speed=19.2x    frame=34387 fps=460 q=-0.0 size=N/A time=00:23:54.22 bitrate=N/A speed=19.2x    [Parsed_psnr_10 @ 00000265e034d640] PSNR y:48.332555 u:52.502632 v:52.211233 average:49.308716 min:40.323173 max:inf
[out#0/null @ 00000265dff3d2c0] video:14800KiB audio:270076KiB subtitle:0KiB other streams:0KiB global headers:0KiB muxing overhead: unknown
frame=34444 fps=460 q=-0.0 Lsize=N/A time=00:23:56.60 bitrate=N/A speed=19.2x    
